<?xml version="1.0" standalone="no"?>
<!DOCTYPE svg PUBLIC "-//W3C//DTD SVG 20010904//EN"
 "http://www.w3.org/TR/2001/REC-SVG-20010904/DTD/svg10.dtd">
<svg  width="30px" height="30px" enable-background="new 0 0 48 48" version="1.0" xmlns="http://www.w3.org/2000/svg"
  viewBox="0 0 75.000000 75.000000"
 preserveAspectRatio="xMidYMid meet">

<g transform="translate(0.000000,75.000000) scale(0.100000,-0.100000)"
fill="#000000" stroke="none">
<path d="M17 732 c-15 -17 -17 -56 -17 -359 0 -317 1 -341 18 -356 17 -15 56
-17 359 -17 317 0 341 1 356 18 15 17 17 56 17 359 0 317 -1 341 -18 356 -17
15 -56 17 -359 17 -317 0 -341 -1 -356 -18z m187 -103 c29 -23 33 -54 10 -87
-30 -43 -114 -15 -114 38 0 24 42 70 63 70 8 0 26 -9 41 -21z m385 -177 c39
-29 50 -74 50 -214 l1 -128 -54 0 -54 0 -4 121 c-3 106 -5 122 -22 135 -28 20
-60 17 -82 -7 -16 -17 -20 -40 -23 -135 l-3 -114 -54 0 -54 0 0 180 0 180 55
0 c50 0 55 -2 55 -22 0 -20 1 -20 18 -5 45 41 123 45 171 9z m-369 -162 l0
-180 -55 0 -55 0 0 180 0 180 55 0 55 0 0 -180z"/>
</g>
</svg>
