<?xml version="1.0" standalone="no"?>
<!DOCTYPE svg PUBLIC "-//W3C//DTD SVG 20010904//EN"
 "http://www.w3.org/TR/2001/REC-SVG-20010904/DTD/svg10.dtd">
<svg width="30px" height="30px" enable-background="new 0 0 48 48" version="1.0" xmlns="http://www.w3.org/2000/svg"
  viewBox="0 0 75.000000 75.000000"
 preserveAspectRatio="xMidYMid meet">

<g transform="translate(0.000000,75.000000) scale(0.100000,-0.100000)"
fill="#000000" stroke="none">
<path d="M452 663 c-18 -9 -42 -27 -52 -41 -24 -30 -42 -94 -34 -117 6 -15 2
-16 -37 -10 -97 16 -212 77 -261 139 l-17 21 -10 -28 c-21 -54 -9 -111 32
-156 l22 -24 -32 6 c-27 5 -33 3 -33 -11 1 -33 37 -85 76 -108 38 -23 38 -24
12 -24 -16 0 -28 -5 -28 -13 0 -22 62 -78 92 -84 16 -3 30 -9 33 -13 8 -13
-92 -52 -151 -59 l-59 -7 49 -23 c93 -41 178 -51 278 -30 175 37 323 204 336
380 4 58 8 71 28 84 13 8 28 24 34 35 10 18 8 19 -21 13 l-32 -6 23 31 c29 40
23 47 -23 27 -34 -14 -39 -14 -83 10 -54 29 -95 31 -142 8z"/>
</g>
</svg>
